#!OML:ASF H:\LiuWeirdWalks\Patient Classification 1\Patient 1\Session 1\male.ASF
:FULLY-SPECIFIED
:DEGREES
621
root 0.495186 18.025 17.8183 3.14239 2.68957 -4.78135
lowerback 12.7594 -1.23043 5.27094
upperback 1.45805 -0.61089 4.587
thorax -5.63397 -0.367241 1.97251
lowerneck -15.7912 2.56038 8.80995
upperneck 17.5747 4.25172 -13.9684
head 8.57181 1.21299 -5.74267
rclavicle 2.38542e-015 -2.70347e-014
rhumerus -28.1187 -34.3947 -5.78985
rradius 32.1306
rwrist -5.80035
rhand -21.4885 -5.29919
rfingers 7.12502
rthumb 4.9027 -35.2225
lclavicle 2.38542e-015 -2.70347e-014
lhumerus -31.2936 32.5448 18.8845
lradius 39.8941
lwrist 10.6386
lhand -20.1998 -2.7157
lfingers 7.12502
lthumb 6.14695 27.1751
rfemur 5.05689 -1.21063 23.9571
rtibia 16.7606
rfoot -11.9905 -23.7676
rtoes -6.32104
lfemur -29.7948 4.68561 -6.58749
ltibia 24.8251
lfoot -7.46244 12.9964
ltoes -17.9173
622
root 0.515528 18.0099 17.9025 3.17937 2.64642 -5.0745
lowerback 12.6928 -1.2177 5.08816
upperback 1.4235 -0.635005 4.3969
thorax -5.6333 -0.377509 1.87652
lowerneck -15.6932 2.57986 8.8511
upperneck 17.5661 4.19903 -13.6153
head 8.5355 1.22849 -5.62929
rclavicle 7.7526e-015 -2.70347e-014
rhumerus -27.9235 -34.3732 -5.41775
rradius 32.1398
rwrist -5.74581
rhand -21.4241 -5.30706
rfingers 7.12502
rthumb 4.96485 -35.2289
lclavicle 7.7526e-015 -2.70347e-014
lhumerus -31.3772 32.426 18.8962
lradius 39.8719
lwrist 10.6728
lhand -20.1933 -2.72716
lfingers 7.12502
lthumb 6.15316 27.1635
rfemur 5.61427 -1.21489 24.2201
rtibia 16.1404
rfoot -11.8036 -23.7912
rtoes -6.45412
lfemur -29.9597 4.26587 -6.01914
ltibia 24.3127
lfoot -7.47841 13.3395
ltoes -17.8349
623
root 0.536538 17.9935 17.9882 3.21023 2.5827 -5.38345
lowerback 12.6326 -1.20826 4.89351
upperback 1.40305 -0.665114 4.20926
thorax -5.62115 -0.390183 1.79089
lowerneck -15.6568 2.6189 8.91449
upperneck 17.581 4.16737 -13.2654
head 8.52203 1.25261 -5.51989
rclavicle -1.92821e-014 2.3059e-014
rhumerus -27.6791 -34.4122 -5.10955
rradius 32.1303
rwrist -5.65707
rhand -21.3514 -5.31518
rfingers 7.12502
rthumb 5.03503 -35.2354
lclavicle -1.92821e-014 2.3059e-014
lhumerus -31.4799 32.3964 18.8655
lradius 39.845
lwrist 10.6703
lhand -20.1838 -2.74179
lfingers 7.12502
lthumb 6.16238 27.1486
rfemur 6.16847 -1.21302 24.4948
rtibia 15.5476
rfoot -11.6201 -23.8062
rtoes -6.61808
lfemur -30.0898 3.81979 -5.40188
ltibia 23.8583
lfoot -7.51544 13.7011
ltoes -17.7562
624
root 0.558579 17.9755 18.0758 3.23458 2.49977 -5.70474
lowerback 12.5765 -1.20778 4.68358
upperback 1.40458 -0.709909 4.02219
thorax -5.58783 -0.409338 1.71681
lowerneck -15.7045 2.68722 9.01343
upperneck 17.6215 4.16649 -12.9258
head 8.53771 1.28962 -5.41806
rclavicle -3.37934e-015 -3.18055e-015
rhumerus -27.3624 -34.5279 -4.89197
rradius 32.1028
rwrist -5.56197
rhand -21.2909 -5.352
rfingers 7.12502
rthumb 5.0935 -35.2708
lclavicle -3.37934e-015 -3.18055e-015
lhumerus -31.6168 32.4754 18.7768
lradius 39.8212
lwrist 10.6216
lhand -20.1677 -2.75468
lfingers 7.12502
lthumb 6.17788 27.1352
rfemur 6.71625 -1.21629 24.7737
rtibia 14.9928
rfoot -11.4419 -23.8069
rtoes -6.82013
lfemur -30.1846 3.35813 -4.74857
ltibia 23.4703
lfoot -7.57479 14.074
ltoes -17.6886
625
root 0.58205 17.9563 18.1653 3.25419 2.40121 -6.03269
lowerback 12.5196 -1.21986 4.45666
upperback 1.4309 -0.774866 3.83322
thorax -5.52772 -0.437647 1.65335
lowerneck -15.8426 2.78902 9.15471
upperneck 17.6853 4.19972 -12.6002
head 8.58347 1.34133 -5.3255
rclavicle 1.3418e-014 3.37934e-014
rhumerus -26.9644 -34.6992 -4.78423
rradius 32.0674
rwrist -5.50773
rhand -21.2635 -5.44034
rfingers 7.12502
rthumb 5.11991 -35.3585
lclavicle 1.3418e-014 3.37934e-014
lhumerus -31.7947 32.6438 18.6296
lradius 39.8113
lwrist 10.548
lhand -20.1501 -2.76004
lfingers 7.12502
lthumb 6.19486 27.1294
rfemur 7.25157 -1.23794 25.0464
rtibia 14.4867
rfoot -11.2712 -23.7869
rtoes -7.06535
lfemur -30.2469 2.89428 -4.07736
ltibia 23.1558
lfoot -7.65448 14.447
ltoes -17.6393
626
root 0.607302 17.9357 18.2567 3.2714 2.29102 -6.36328
lowerback 12.4578 -1.24369 4.21691
upperback 1.47581 -0.858112 3.64087
thorax -5.44511 -0.474477 1.59628
lowerneck -16.0495 2.91939 9.33471
upperneck 17.765 4.26066 -12.2876
head 8.65185 1.4056 -5.24128
rclavicle -2.15681e-014 3.57812e-015
rhumerus -26.4976 -34.878 -4.78391
rradius 32.0382
rwrist -5.5449
rhand -21.2876 -5.59224
rfingers 7.12502
rthumb 5.09667 -35.511
lclavicle -2.15681e-014 3.57812e-015
lhumerus -32.0095 32.8693 18.4348
lradius 39.8163
lwrist 10.4643
lhand -20.1345 -2.75943
lfingers 7.12502
lthumb 6.21 27.1296
rfemur 7.76714 -1.28738 25.3049
rtibia 14.0407
rfoot -11.1125 -23.7416
rtoes -7.35326
lfemur -30.2802 2.44342 -3.4053
ltibia 22.9198
lfoot -7.75138 14.8057
ltoes -17.6141
627
root 0.634551 17.9139 18.3501 3.28778 2.17156 -6.69341
lowerback 12.3901 -1.27549 3.96893
upperback 1.52862 -0.953243 3.44487
thorax -5.35094 -0.517035 1.54184
lowerneck -16.2927 3.06829 9.54124
upperneck 17.8558 4.33812 -11.9814
head 8.73351 1.4782 -5.16178
rclavicle -1.70458e-014 -1.43125e-014
rhumerus -25.9865 -34.9964 -4.87632
rradius 32.0337
rwrist -5.72778
rhand -21.3763 -5.81636
rfingers 7.12502
rthumb 5.01102 -35.7371
lclavicle -1.70458e-014 -1.43125e-014
lhumerus -32.2539 33.0946 18.215
lradius 39.8432
lwrist 10.4116
lhand -20.1332 -2.74513
lfingers 7.12502
lthumb 6.21119 27.1438
rfemur 8.25531 -1.36585 25.544
rtibia 13.6677
rfoot -10.9725 -23.6701
rtoes -7.6789
lfemur -30.2864 2.01897 -2.74673
ltibia 22.7636
lfoot -7.86286 15.1379
ltoes -17.616
628
root 0.663894 17.891 18.4453 3.30453 2.04302 -7.02162
lowerback 12.3169 -1.30654 3.72101
upperback 1.57545 -1.04669 3.24599
thorax -5.26002 -0.559046 1.48416
lowerneck -16.5331 3.21851 9.75167
upperneck 17.9535 4.41373 -11.6704
head 8.81685 1.55137 -5.08107
rclavicle -3.13583e-014 4.75095e-014
rhumerus -25.4768 -35.0045 -5.01519
rradius 32.0603
rwrist -6.04467
rhand -21.5115 -6.08137
rfingers 7.12502
rthumb 4.88047 -36.0052
lclavicle -3.13583e-014 4.75095e-014
lhumerus -32.5063 33.2885 17.9987
lradius 39.8819
lwrist 10.3976
lhand -20.1502 -2.71862
lfingers 7.12502
lthumb 6.19481 27.1708
rfemur 8.70766 -1.46639 25.7617
rtibia 13.3818
rfoot -10.8591 -23.5746
rtoes -8.0338
lfemur -30.2652 1.63216 -2.11202
ltibia 22.684
lfoot -7.9873 15.4341
ltoes -17.6468
629
root 0.695287 17.867 18.5424 3.32125 1.90326 -7.3481
lowerback 12.2385 -1.32793 3.48056
upperback 1.60649 -1.12513 3.04492
thorax -5.1831 -0.594194 1.41782
lowerneck -16.7388 3.35405 9.94549
upperneck 18.055 4.47061 -11.3434
head 8.89222 1.61787 -4.99368
rclavicle 5.07522e-015 2.75565e-014
rhumerus -25.0126 -34.8823 -5.15141
rradius 32.1164
rwrist -6.44641
rhand -21.6607 -6.34759
rfingers 7.12502
rthumb 4.73637 -36.2746
lclavicle 5.07522e-015 2.75565e-014
lhumerus -32.7436 33.4415 17.8082
lradius 39.9182
lwrist 10.4193
lhand -20.184 -2.6876
lfingers 7.12502
lthumb 6.16217 27.2028
rfemur 9.11677 -1.57432 25.9599
rtibia 13.198
rfoot -10.7791 -23.4614
rtoes -8.41046
lfemur -30.2123 1.28882 -1.50642
ltibia 22.6732
lfoot -8.12285 15.6914
ltoes -17.7058
630
root 0.728737 17.8418 18.6412 3.33696 1.75028 -7.67098
lowerback 12.1549 -1.33382 3.25028
upperback 1.61791 -1.18041 2.84206
thorax -5.12417 -0.618484 1.34049
lowerneck -16.898 3.46567 10.1101
upperneck 18.1614 4.49972 -10.9956
head 8.95631 1.67341 -4.89712
rclavicle -1.35919e-014 -1.0138e-014
rhumerus -24.6193 -34.694 -5.23601
rradius 32.1706
rwrist -6.79712
rhand -21.7713 -6.54376
rfingers 7.12502
rthumb 4.6296 -36.4732
lclavicle -1.35919e-014 -1.0138e-014
lhumerus -32.9533 33.5609 17.6558
lradius 39.945
lwrist 10.4655
lhand -20.2295 -2.65284
lfingers 7.12502
lthumb 6.11823 27.2388
rfemur 9.47691 -1.67675 26.1375
rtibia 13.13
rfoot -10.7368 -23.3348
rtoes -8.8042
lfemur -30.1212 0.989368 -0.936309
ltibia 22.7193
lfoot -8.26286 15.9121
ltoes -17.7931
